<svg width="35" height="35" viewBox="0 0 35 35" fill="none" xmlns="http://www.w3.org/2000/svg">
<path d="M10.2916 3.52693L11.9935 3.01395C13.9222 2.4326 15.9827 3.3721 16.8087 5.20935L18.1237 8.13436C18.8276 9.70036 18.4566 11.5408 17.201 12.7118L15.0218 14.7439C14.9581 14.8033 14.9177 14.8835 14.9081 14.9701C14.8433 15.5492 15.236 16.6771 16.1405 18.2438C16.7984 19.3832 17.3936 20.1821 17.9004 20.6315C18.2535 20.9446 18.4479 21.0123 18.5306 20.9876L21.4624 20.0914C23.1039 19.5895 24.8828 20.1879 25.8871 21.5799L27.7548 24.1684C28.9304 25.7977 28.7189 28.0454 27.2603 29.4269L25.9676 30.651C24.5729 31.972 22.5872 32.4641 20.737 31.9477C16.7206 30.8267 13.1195 27.4373 9.89389 21.8504C6.66375 16.2556 5.53035 11.4366 6.57517 7.39441C7.05332 5.54455 8.46226 4.07835 10.2916 3.52693ZM10.9229 5.62134C9.82532 5.9522 8.97995 6.83192 8.69307 7.94184C7.8142 11.342 8.81879 15.6132 11.7883 20.7566C14.7539 25.893 17.9461 28.8976 21.325 29.8407C22.4352 30.1506 23.6266 29.8553 24.4635 29.0627L25.756 27.8386C26.4191 27.2106 26.5152 26.1889 25.9809 25.4484L24.1132 22.8598C23.6566 22.2272 22.848 21.9551 22.1019 22.1833L19.1629 23.0818C17.4571 23.5903 15.9088 22.2173 14.2461 19.3375C13.1257 17.3969 12.6035 15.8967 12.7341 14.7273C12.8017 14.1214 13.084 13.5598 13.5299 13.144L15.7091 11.1119C16.2799 10.5797 16.4485 9.7431 16.1285 9.03129L14.8136 6.10628C14.4381 5.27117 13.5015 4.84411 12.6248 5.10836L10.9229 5.62134Z" fill="white"/>
</svg>
