<svg width="100" height="100" viewBox="0 0 100 100" fill="none" xmlns="http://www.w3.org/2000/svg">
<circle cx="50" cy="50" r="48.5" stroke="#4174B8" stroke-width="3"/>
<path d="M39.7148 58.0039C41.5269 58.0039 42.996 59.473 42.996 61.2852V65.9688C42.996 67.7809 41.5269 69.25 39.7148 69.25H35.0312C33.2191 69.25 31.75 67.7809 31.75 65.9688V61.2852C31.75 59.473 33.2191 58.0039 35.0312 58.0039H39.7148ZM39.7148 60.8164H35.0312C34.7724 60.8164 34.5625 61.0264 34.5625 61.2852V65.9688C34.5625 66.2277 34.7724 66.4375 35.0312 66.4375H39.7148C39.9737 66.4375 40.1835 66.2277 40.1835 65.9688V61.2852C40.1835 61.0264 39.9737 60.8164 39.7148 60.8164ZM46.2777 61.75H67.8492C68.6258 61.75 69.2554 62.3796 69.2554 63.1562C69.2554 63.8682 68.7263 64.4566 68.0401 64.5498L67.8492 64.5625H46.2777C45.501 64.5625 44.8714 63.9329 44.8714 63.1562C44.8714 62.4443 45.4005 61.8559 46.0869 61.7627L46.2777 61.75ZM39.7148 44.877C41.5269 44.877 42.996 46.346 42.996 48.1583V52.8417C42.996 54.6539 41.5269 56.1229 39.7148 56.1229H35.0312C33.2191 56.1229 31.75 54.6539 31.75 52.8417V48.1583C31.75 46.346 33.2191 44.877 35.0312 44.877H39.7148ZM39.7148 47.6896H35.0312C34.7724 47.6896 34.5625 47.8994 34.5625 48.1583V52.8417C34.5625 53.1006 34.7724 53.3104 35.0312 53.3104H39.7148C39.9737 53.3104 40.1835 53.1006 40.1835 52.8417V48.1583C40.1835 47.8994 39.9737 47.6896 39.7148 47.6896ZM46.2777 48.625H67.8492C68.6258 48.625 69.2554 49.2546 69.2554 50.0312C69.2554 50.7432 68.7263 51.3316 68.0401 51.4248L67.8492 51.4375H46.2777C45.501 51.4375 44.8714 50.8079 44.8714 50.0312C44.8714 49.3193 45.4005 48.7309 46.0869 48.6377L46.2777 48.625ZM39.7148 31.75C41.5269 31.75 42.996 33.2191 42.996 35.0312V39.7148C42.996 41.5269 41.5269 42.996 39.7148 42.996H35.0312C33.2191 42.996 31.75 41.5269 31.75 39.7148V35.0312C31.75 33.2191 33.2191 31.75 35.0312 31.75H39.7148ZM39.7148 34.5625H35.0312C34.7724 34.5625 34.5625 34.7724 34.5625 35.0312V39.7148C34.5625 39.9737 34.7724 40.1835 35.0312 40.1835H39.7148C39.9737 40.1835 40.1835 39.9737 40.1835 39.7148V35.0312C40.1835 34.7724 39.9737 34.5625 39.7148 34.5625ZM46.2777 35.5H67.8492C68.6258 35.5 69.2554 36.1296 69.2554 36.9062C69.2554 37.6182 68.7263 38.2065 68.0401 38.2997L67.8492 38.3125H46.2777C45.501 38.3125 44.8714 37.6829 44.8714 36.9062C44.8714 36.1943 45.4005 35.606 46.0869 35.5128L46.2777 35.5Z" fill="#4174B8"/>
</svg>
