<svg width="100" height="100" viewBox="0 0 100 100" fill="none" xmlns="http://www.w3.org/2000/svg">
<circle cx="50" cy="50" r="48.5" stroke="#4174B8" stroke-width="3"/>
<path d="M38.3125 43C38.3125 40.4112 40.4112 38.3125 43 38.3125C45.5888 38.3125 47.6875 40.4112 47.6875 43C47.6875 45.5888 45.5888 47.6875 43 47.6875C40.4112 47.6875 38.3125 45.5888 38.3125 43ZM43 35.5C38.8579 35.5 35.5 38.8579 35.5 43C35.5 47.1421 38.8579 50.5 43 50.5C47.1421 50.5 50.5 47.1421 50.5 43C50.5 38.8579 47.1421 35.5 43 35.5ZM57.0625 44.875C57.0625 43.3217 58.3217 42.0625 59.875 42.0625C61.4282 42.0625 62.6875 43.3217 62.6875 44.875C62.6875 46.4283 61.4282 47.6875 59.875 47.6875C58.3217 47.6875 57.0625 46.4283 57.0625 44.875ZM59.875 39.25C56.7683 39.25 54.25 41.7684 54.25 44.875C54.25 47.9817 56.7683 50.5 59.875 50.5C62.9817 50.5 65.5 47.9817 65.5 44.875C65.5 41.7684 62.9817 39.25 59.875 39.25ZM54.7157 63.6957C56.0325 64.231 57.7219 64.5625 59.8769 64.5625C64.1562 64.5625 66.6 63.2551 67.9335 61.6415C68.5806 60.8583 68.9099 60.0676 69.0769 59.4616C69.1602 59.1589 69.2039 58.9 69.2265 58.7069C69.238 58.6101 69.2444 58.5289 69.2477 58.4663C69.2494 58.435 69.2505 58.4082 69.2511 58.3861L69.2517 58.3568L69.2519 58.3448V58.3396V58.3349C69.2519 56.0789 67.423 54.25 65.167 54.25H54.5867C54.5352 54.25 54.484 54.2509 54.4332 54.2528C55.1717 55.0236 55.71 55.9881 55.9637 57.0625H65.167C65.8637 57.0625 66.4296 57.6224 66.4392 58.3167C66.4386 58.3274 66.4369 58.3478 66.4335 58.3771C66.4251 58.4476 66.4065 58.5653 66.3653 58.7148C66.2832 59.0129 66.1144 59.4274 65.7655 59.8497C65.1068 60.6468 63.5663 61.75 59.8769 61.75C58.0392 61.75 56.7347 61.4763 55.8066 61.1031C55.6058 61.8533 55.2722 62.7584 54.7157 63.6957ZM35.9687 54.25C33.6388 54.25 31.75 56.1389 31.75 58.4688V58.9396V58.9416L31.75 58.9465L31.7501 58.9583L31.7507 58.9894C31.7512 59.0136 31.7522 59.0446 31.7539 59.0821C31.7574 59.1567 31.764 59.2572 31.7762 59.3796C31.8006 59.6239 31.8481 59.9594 31.9406 60.3558C32.1249 61.1455 32.4935 62.2008 33.2347 63.2596C34.77 65.4529 37.6971 67.375 43 67.375C48.3029 67.375 51.2299 65.4529 52.7654 63.2596C53.5066 62.2008 53.8752 61.1455 54.0593 60.3558C54.1519 59.9594 54.1994 59.6239 54.2237 59.3796C54.2361 59.2572 54.2425 59.1567 54.2461 59.0821C54.2477 59.0446 54.2489 59.0136 54.2492 58.9894L54.2498 58.9583L54.25 58.9465V58.9416V58.4688C54.25 56.1389 52.3611 54.25 50.0312 54.25H35.9687ZM34.5634 58.951L34.5625 58.9276V58.4688C34.5625 57.6921 35.1921 57.0625 35.9687 57.0625H50.0312C50.8079 57.0625 51.4375 57.6921 51.4375 58.4688V58.9274L51.4366 58.951C51.4352 58.9791 51.4322 59.0299 51.4253 59.0997C51.4112 59.2398 51.3818 59.4537 51.3205 59.7166C51.1971 60.2451 50.9506 60.9477 50.4612 61.6467C49.5357 62.969 47.5409 64.5625 43 64.5625C38.4592 64.5625 36.4644 62.969 35.5388 61.6467C35.0495 60.9477 34.8028 60.2451 34.6795 59.7166C34.6182 59.4537 34.5887 59.2398 34.5747 59.0997C34.5678 59.0299 34.5647 58.9791 34.5634 58.951Z" fill="#4174B8"/>
</svg>
