<svg width="100" height="100" viewBox="0 0 100 100" fill="none" xmlns="http://www.w3.org/2000/svg">
<circle cx="50" cy="50" r="48.5" stroke="#4174B8" stroke-width="3"/>
<path d="M47.6875 43C44.5809 43 42.0625 45.5184 42.0625 48.625C42.0625 51.7317 44.5809 54.25 47.6875 54.25C50.7942 54.25 53.3125 51.7317 53.3125 48.625C53.3125 45.5184 50.7942 43 47.6875 43ZM44.875 48.625C44.875 47.0717 46.1342 45.8125 47.6875 45.8125C49.2407 45.8125 50.5 47.0717 50.5 48.625C50.5 50.1783 49.2407 51.4375 47.6875 51.4375C46.1342 51.4375 44.875 50.1783 44.875 48.625ZM31.75 41.5938C31.75 39.2638 33.6388 37.375 35.9688 37.375H59.4062C61.7361 37.375 63.625 39.2638 63.625 41.5938V55.6562C63.625 57.9861 61.7361 59.875 59.4062 59.875H35.9688C33.6388 59.875 31.75 57.9861 31.75 55.6562V41.5938ZM35.9688 40.1875C35.1921 40.1875 34.5625 40.8171 34.5625 41.5938V43H35.9688C36.7454 43 37.375 42.3704 37.375 41.5938V40.1875H35.9688ZM34.5625 51.4375H35.9688C38.2987 51.4375 40.1875 53.3264 40.1875 55.6562V57.0625H55.1875V55.6562C55.1875 53.3264 57.0764 51.4375 59.4062 51.4375H60.8125V45.8125H59.4062C57.0764 45.8125 55.1875 43.9237 55.1875 41.5938V40.1875H40.1875V41.5938C40.1875 43.9237 38.2987 45.8125 35.9688 45.8125H34.5625V51.4375ZM60.8125 43V41.5938C60.8125 40.8171 60.1829 40.1875 59.4062 40.1875H58V41.5938C58 42.3704 58.6296 43 59.4062 43H60.8125ZM60.8125 54.25H59.4062C58.6296 54.25 58 54.8796 58 55.6562V57.0625H59.4062C60.1829 57.0625 60.8125 56.4329 60.8125 55.6562V54.25ZM34.5625 55.6562C34.5625 56.4329 35.1921 57.0625 35.9688 57.0625H37.375V55.6562C37.375 54.8796 36.7454 54.25 35.9688 54.25H34.5625V55.6562ZM36.2526 62.6875C37.2252 64.3688 39.043 65.5 41.125 65.5H60.3438C65.2626 65.5 69.25 61.5126 69.25 56.5938V46.75C69.25 44.668 68.1188 42.8502 66.4375 41.8776V56.5938C66.4375 59.9592 63.7092 62.6875 60.3438 62.6875H36.2526Z" fill="#4174B8"/>
</svg>
