<svg width="90" height="120" viewBox="0 0 90 120" fill="none" xmlns="http://www.w3.org/2000/svg">
<path d="M23.1401 7.5H11.25C5.03678 7.5 1.90735e-06 12.5368 1.90735e-06 18.75V108.75C1.90735e-06 114.963 5.03678 120 11.25 120H78.75C84.963 120 90 114.963 90 108.75V18.75C90 12.5368 84.963 7.5 78.75 7.5H66.8595C65.3153 3.1305 61.1483 0 56.25 0H33.75C28.8517 0 24.6845 3.1305 23.1401 7.5ZM33.75 7.5H56.25C58.3208 7.5 60 9.17895 60 11.25C60 13.3211 58.3208 15 56.25 15H33.75C31.679 15 30 13.3211 30 11.25C30 9.17895 31.679 7.5 33.75 7.5ZM37.5 48.75C37.5 46.679 39.179 45 41.25 45H67.5C69.5708 45 71.25 46.679 71.25 48.75C71.25 50.8211 69.5708 52.5 67.5 52.5H41.25C39.179 52.5 37.5 50.8211 37.5 48.75ZM37.5 71.25C37.5 69.1793 39.179 67.5 41.25 67.5H67.5C69.5708 67.5 71.25 69.1793 71.25 71.25C71.25 73.3208 69.5708 75 67.5 75H41.25C39.179 75 37.5 73.3208 37.5 71.25ZM37.5 93.75C37.5 91.6793 39.179 90 41.25 90H67.5C69.5708 90 71.25 91.6793 71.25 93.75C71.25 95.8208 69.5708 97.5 67.5 97.5H41.25C39.179 97.5 37.5 95.8208 37.5 93.75ZM30 48.75C30 51.8566 27.4816 54.375 24.375 54.375C21.2684 54.375 18.75 51.8566 18.75 48.75C18.75 45.6434 21.2684 43.125 24.375 43.125C27.4816 43.125 30 45.6434 30 48.75ZM30 71.25C30 74.3565 27.4816 76.875 24.375 76.875C21.2684 76.875 18.75 74.3565 18.75 71.25C18.75 68.1435 21.2684 65.625 24.375 65.625C27.4816 65.625 30 68.1435 30 71.25ZM24.375 99.375C21.2684 99.375 18.75 96.8565 18.75 93.75C18.75 90.6435 21.2684 88.125 24.375 88.125C27.4816 88.125 30 90.6435 30 93.75C30 96.8565 27.4816 99.375 24.375 99.375Z" fill="#13559F"/>
</svg>
