<svg width="58" height="58" viewBox="0 0 58 58" fill="none" xmlns="http://www.w3.org/2000/svg">
<path d="M17.0544 5.84464L19.8747 4.99455C23.0707 4.03117 26.4854 5.58806 27.8542 8.63265L30.0333 13.4798C31.1998 16.0749 30.585 19.1248 28.5043 21.0652L24.893 24.4328C24.7874 24.5312 24.7205 24.6641 24.7045 24.8076C24.5972 25.7673 25.248 27.6364 26.7469 30.2326C27.837 32.1207 28.8235 33.4446 29.6633 34.1894C30.2484 34.7082 30.5705 34.8204 30.7075 34.7795L35.566 33.2943C38.2862 32.4627 41.2341 33.4542 42.8984 35.7609L45.9934 40.0505C47.9415 42.7504 47.5911 46.4752 45.1739 48.7645L43.0318 50.7931C40.7205 52.9821 37.43 53.7977 34.364 52.942C27.7082 51.0843 21.7407 45.4675 16.3953 36.2092C11.0425 26.9379 9.16433 18.9521 10.8958 12.2536C11.6881 9.18812 14.0229 6.75843 17.0544 5.84464ZM18.1006 9.31538C16.2817 9.86365 14.8808 11.3215 14.4054 13.1608C12.949 18.7953 14.6137 25.8734 19.5347 34.3967C24.4491 42.9085 29.7389 47.8875 35.3384 49.4504C37.1782 49.9639 39.1523 49.4746 40.5393 48.1611L42.6812 46.1326C43.78 45.0919 43.9393 43.3988 43.0538 42.1716L39.9588 37.8821C39.2021 36.8337 37.8621 36.3828 36.6257 36.761L31.7554 38.2499C28.9286 39.0926 26.3629 36.8173 23.6076 32.0451C21.7509 28.8292 20.8855 26.3432 21.1019 24.4053C21.2141 23.4012 21.6819 22.4705 22.4207 21.7816L26.032 18.4141C26.9779 17.532 27.2573 16.1457 26.727 14.9662L24.5479 10.119C23.9258 8.73509 22.3736 8.0274 20.9209 8.4653L18.1006 9.31538Z" fill="#13559F"/>
</svg>
