<svg width="50" height="50" viewBox="0 0 50 50" fill="none" xmlns="http://www.w3.org/2000/svg">
<path d="M22.5 21.25C22.5 20.5597 23.0597 20 23.75 20H32.5C33.1903 20 33.75 20.5597 33.75 21.25C33.75 21.9403 33.1903 22.5 32.5 22.5H23.75C23.0597 22.5 22.5 21.9403 22.5 21.25ZM22.5 28.75C22.5 28.0597 23.0597 27.5 23.75 27.5H32.5C33.1903 27.5 33.75 28.0597 33.75 28.75C33.75 29.4403 33.1903 30 32.5 30H23.75C23.0597 30 22.5 29.4403 22.5 28.75ZM22.5 36.25C22.5 35.5597 23.0597 35 23.75 35H32.5C33.1903 35 33.75 35.5597 33.75 36.25C33.75 36.9403 33.1903 37.5 32.5 37.5H23.75C23.0597 37.5 22.5 36.9403 22.5 36.25ZM20 21.25C20 22.2855 19.1605 23.125 18.125 23.125C17.0895 23.125 16.25 22.2855 16.25 21.25C16.25 20.2145 17.0895 19.375 18.125 19.375C19.1605 19.375 20 20.2145 20 21.25ZM20 28.75C20 29.7855 19.1605 30.625 18.125 30.625C17.0895 30.625 16.25 29.7855 16.25 28.75C16.25 27.7145 17.0895 26.875 18.125 26.875C19.1605 26.875 20 27.7145 20 28.75ZM18.125 38.125C19.1605 38.125 20 37.2855 20 36.25C20 35.2145 19.1605 34.375 18.125 34.375C17.0895 34.375 16.25 35.2145 16.25 36.25C16.25 37.2855 17.0895 38.125 18.125 38.125ZM17.7134 7.5C18.2282 6.0435 19.6172 5 21.25 5H28.75C30.3827 5 31.7718 6.0435 32.2865 7.5H36.25C38.321 7.5 40 9.17893 40 11.25V41.25C40 43.321 38.321 45 36.25 45H13.75C11.6789 45 10 43.321 10 41.25V11.25C10 9.17893 11.6789 7.5 13.75 7.5H17.7134ZM21.25 7.5C20.5597 7.5 20 8.05965 20 8.75C20 9.44035 20.5597 10 21.25 10H28.75C29.4403 10 30 9.44035 30 8.75C30 8.05965 29.4403 7.5 28.75 7.5H21.25ZM17.7134 10H13.75C13.0596 10 12.5 10.5596 12.5 11.25V41.25C12.5 41.9403 13.0596 42.5 13.75 42.5H36.25C36.9403 42.5 37.5 41.9403 37.5 41.25V11.25C37.5 10.5596 36.9403 10 36.25 10H32.2865C31.7718 11.4565 30.3827 12.5 28.75 12.5H21.25C19.6172 12.5 18.2282 11.4565 17.7134 10Z" fill="#13559F"/>
</svg>
